<?xml version="1.0" encoding="UTF-8"?>
<svg width="16px" height="16px" viewBox="0 0 16 16" version="1.1" xmlns="http://www.w3.org/2000/svg" xmlns:xlink="http://www.w3.org/1999/xlink">
    <title>0AD6AE25-CAA3-49AC-A8A8-90845C6510FF</title>
    <g id="DS-redesign" stroke="none" stroke-width="1" fill="none" fill-rule="evenodd">
        <g id="ds-homepage-desktop-web-001" transform="translate(-1088.000000, -32.000000)" fill="#FFFFFF">
            <g id="Group-37" transform="translate(560.000000, 16.000000)">
                <g id="Group-35" transform="translate(520.000000, 8.000000)">
                    <g id="Group-36" transform="translate(8.000000, 8.000000)">
                        <rect id="Rectangle-Copy-8" opacity="0" x="0" y="0" width="16" height="16"></rect>
                        <path d="M6.96682501,2 C9.70992672,2 11.93365,4.22687367 11.93365,6.97386156 C11.93365,8.06685562 11.5816012,9.07750779 10.9848632,9.89830642 L14,12.9178304 L12.9193613,14 L9.90629022,10.9835546 C9.08324453,11.5896507 8.06679176,11.9477231 6.96682501,11.9477231 C4.2237233,11.9477231 2,9.72084944 2,6.97386156 C2,4.22687367 4.2237233,2 6.96682501,2 Z M6.96682501,3.53041894 C5.0677546,3.53041894 3.52825385,5.07210071 3.52825385,6.97386156 C3.52825385,8.8756224 5.0677546,10.4173042 6.96682501,10.4173042 C8.86589543,10.4173042 10.4053962,8.8756224 10.4053962,6.97386156 C10.4053962,5.07210071 8.86589543,3.53041894 6.96682501,3.53041894 Z" id="Shape" fill-rule="nonzero"></path>
                    </g>
                </g>
            </g>
        </g>
    </g>
</svg>